Coordinates
version=1
nRows=19
nColumns=63
inDegrees=yes

Units are S.I. units (second, meters, Newtons, ...)
If the header above contains a line with 'inDegrees', this indicates whether rotational values are in degrees (yes) or radians (no).

endheader
time	pelvis_tilt	pelvis_list	pelvis_rotation	pelvis_tx	pelvis_ty	pelvis_tz	hip_flexion_r	hip_adduction_r	hip_rotation_r	knee_angle_r	knee_angle_r_beta	ankle_angle_r	subtalar_angle_r	mtp_angle_r	hip_flexion_l	hip_adduction_l	hip_rotation_l	knee_angle_l	knee_angle_l_beta	ankle_angle_l	subtalar_angle_l	mtp_angle_l	L5_S1_Flex_Ext	L5_S1_Lat_Bending	L5_S1_axial_rotation	L4_L5_Flex_Ext	L4_L5_Lat_Bending	L4_L5_axial_rotation	L3_L4_Flex_Ext	L3_L4_Lat_Bending	L3_L4_axial_rotation	L2_L3_Flex_Ext	L2_L3_Lat_Bending	L2_L3_axial_rotation	L1_L2_Flex_Ext	L1_L2_Lat_Bending	L1_L2_axial_rotation	L1_T12_Flex_Ext	L1_T12_Lat_Bending	L1_T12_axial_rotation	Abs_r3	Abs_r2	Abs_r1	Abs_t1	Abs_t2	neck_flexion	neck_bending	neck_rotation	arm_flex_r	arm_add_r	arm_rot_r	elbow_flex_r	pro_sup_r	wrist_flex_r	wrist_dev_r	arm_flex_l	arm_add_l	arm_rot_l	elbow_flex_l	pro_sup_l	wrist_flex_l	wrist_dev_l
0.000000	8.522536	-6.205596	100.170271	0.120845	0.623223	0.845856	-3.669293	6.825661	18.010034	0.649639	0.011338	20.037010	-14.607262	0.000000	0.087139	-10.226753	-15.126834	8.601214	0.150120	35.653054	14.655803	0.000000	-0.025344	0.779948	-0.674828	-0.047066	1.037330	-0.717005	-0.041637	1.896364	-0.717005	-0.028965	1.896364	-0.590475	-0.023534	1.590469	-0.548298	-0.014481	1.208139	-0.506121	-0.181028	8.822923	-3.753192	0.000000	0.000000	19.185294	-4.772638	1.904997	15.695196	-6.763294	58.159492	43.882293	86.154447	-0.011704	-0.592678	10.382550	-2.465008	40.449272	48.793399	80.793411	-3.315982	7.310655
0.016667	8.398162	-6.352910	100.168643	0.121830	0.622511	0.846097	-3.499645	6.708572	18.099085	0.661266	0.011541	20.288648	-14.809019	0.000000	0.583119	-10.204546	-14.738328	9.345869	0.163116	36.060696	14.086995	0.000000	-0.023676	0.746396	-0.664286	-0.043969	0.992706	-0.705804	-0.038897	1.814786	-0.705804	-0.027059	1.814786	-0.581250	-0.021985	1.522050	-0.539732	-0.013528	1.156167	-0.498214	-0.169115	8.443376	-3.694558	0.000000	0.000000	19.332299	-4.369959	1.522411	16.212100	-6.508259	59.121469	43.089694	85.947592	0.562497	1.332556	10.100593	-2.095469	39.504256	48.386016	80.009842	-3.678088	6.504209
0.033333	8.305513	-6.439255	100.144218	0.122622	0.621928	0.846075	-3.408288	6.624875	18.242312	0.665824	0.011621	20.518911	-14.994291	0.000000	0.914740	-10.195234	-14.458584	9.909262	0.172949	36.394120	13.647667	0.000000	-0.022702	0.720778	-0.655492	-0.042159	0.958634	-0.696460	-0.037296	1.752499	-0.696460	-0.025946	1.752499	-0.573556	-0.021081	1.469810	-0.532587	-0.012972	1.116485	-0.491619	-0.162155	8.153581	-3.645650	0.000000	0.000000	19.439279	-4.074854	1.221661	16.553486	-6.294329	59.778652	42.478292	85.762221	1.023537	2.931772	9.826022	-1.798677	38.697257	48.070965	79.445258	-4.004558	5.883068
0.050000	8.241443	-6.471312	100.100778	0.123239	0.621460	0.845818	-3.386731	6.571262	18.430765	0.664113	0.011591	20.728415	-15.163386	0.000000	1.099212	-10.197401	-14.275805	10.309223	0.179930	36.659168	13.324345	0.000000	-0.022359	0.702299	-0.648187	-0.041524	0.934057	-0.688698	-0.036734	1.707569	-0.688698	-0.025555	1.707569	-0.567163	-0.020763	1.432127	-0.526652	-0.012776	1.087861	-0.486140	-0.159711	7.944542	-3.605020	0.000000	0.000000	19.512829	-3.877206	0.993582	16.738081	-6.119145	60.163528	42.032053	85.596161	1.381415	4.227788	9.561715	-1.568933	38.022264	47.839499	79.075441	-4.297336	5.428351
0.066667	8.202806	-6.455762	100.042104	0.123696	0.621098	0.845356	-3.426487	6.544426	18.655494	0.656931	0.011466	20.917777	-15.316613	0.000000	1.153744	-10.209634	-14.178195	10.563582	0.184369	36.861681	13.103556	0.000000	-0.022588	0.690163	-0.642109	-0.041949	0.917917	-0.682241	-0.037110	1.678063	-0.682241	-0.025816	1.678063	-0.561846	-0.020976	1.407381	-0.521714	-0.012907	1.069063	-0.481582	-0.161347	7.807264	-3.571219	0.000000	0.000000	19.559549	-3.766898	0.829008	16.784613	-5.980349	60.308586	41.734939	85.447240	1.646128	5.243426	9.310549	-1.400542	37.473268	47.682873	78.876176	-4.558366	5.121177
0.083333	8.186455	-6.399286	99.971975	0.124009	0.620830	0.844719	-3.519066	6.541058	18.907548	0.645078	0.011259	21.087613	-15.454280	0.000000	1.095549	-10.230517	-14.153960	10.690168	0.186579	37.007502	12.971825	0.000000	-0.023327	0.683576	-0.636999	-0.043321	0.909157	-0.676811	-0.038325	1.662048	-0.676811	-0.026661	1.662048	-0.557374	-0.021662	1.393949	-0.517562	-0.013329	1.058860	-0.477749	-0.166625	7.732752	-3.542798	0.000000	0.000000	19.586037	-3.733815	0.718776	16.711813	-5.875584	60.246315	41.570916	85.313287	1.827677	6.001506	9.075401	-1.287807	37.044259	47.592343	78.823245	-4.789591	4.942666
0.100000	8.189246	-6.308565	99.894172	0.124196	0.620643	0.843936	-3.655979	6.557852	19.177978	0.629352	0.010984	21.238541	-15.576697	0.000000	0.941835	-10.258637	-14.191303	10.706812	0.186869	37.102473	12.915677	0.000000	-0.024515	0.681743	-0.632596	-0.045527	0.906718	-0.672133	-0.040276	1.657590	-0.672133	-0.028019	1.657590	-0.553521	-0.022765	1.390210	-0.513984	-0.014008	1.056020	-0.474447	-0.175111	7.712012	-3.518307	0.000000	0.000000	19.598889	-3.767841	0.653719	16.538407	-5.802490	60.009203	41.523947	85.192130	1.936058	6.524848	8.859149	-1.225030	36.729228	47.559162	78.892433	-4.992955	4.873937
0.116667	8.208032	-6.190279	99.812476	0.124271	0.620527	0.843037	-3.828738	6.591498	19.457834	0.610552	0.010656	21.371177	-15.684170	0.000000	0.709814	-10.292579	-14.278428	10.631342	0.185552	37.152436	12.921639	0.000000	-0.026091	0.683868	-0.628639	-0.048454	0.909544	-0.667929	-0.042865	1.662756	-0.667929	-0.029819	1.662756	-0.550059	-0.024228	1.394543	-0.510769	-0.014908	1.059311	-0.471479	-0.186366	7.736047	-3.496299	0.000000	0.000000	19.604703	-3.858859	0.624674	16.283125	-5.758709	59.629738	41.577997	85.081596	1.981273	6.836272	8.664668	-1.206517	36.522164	47.574587	79.059522	-5.170401	4.896111
0.133333	8.239666	-6.051111	99.730667	0.124252	0.620471	0.842050	-4.028853	6.638690	19.738166	0.589476	0.010288	21.486138	-15.777008	0.000000	0.416696	-10.330929	-14.403540	10.481589	0.182938	37.163232	12.976236	0.000000	-0.027993	0.689155	-0.624867	-0.051987	0.916577	-0.663921	-0.045990	1.675612	-0.663921	-0.031994	1.675612	-0.546759	-0.025995	1.405326	-0.507705	-0.015995	1.067502	-0.468650	-0.199954	7.795864	-3.475324	0.000000	0.000000	19.610079	-3.996752	0.622476	15.964695	-5.741882	59.140409	41.717030	84.979514	1.973317	6.958600	8.494837	-1.226568	36.417059	47.629871	79.300297	-5.323873	4.990307
0.150000	8.281004	-5.897739	99.652527	0.124155	0.620462	0.841005	-4.247836	6.696119	20.010023	0.566924	0.009895	21.584042	-15.855521	0.000000	0.079691	-10.372273	-14.554842	10.275382	0.179339	37.140704	13.065994	0.000000	-0.030161	0.696811	-0.621021	-0.056013	0.926759	-0.659835	-0.049552	1.694226	-0.659835	-0.034471	1.694226	-0.543394	-0.028008	1.420937	-0.504580	-0.017234	1.079360	-0.465766	-0.215440	7.882466	-3.453934	0.000000	0.000000	19.621612	-4.171406	0.637960	15.601845	-5.749652	58.573705	41.925010	84.883711	1.922192	6.914651	8.352533	-1.279489	36.407903	47.716270	79.590540	-5.455315	5.137644
0.166667	8.328898	-5.736847	99.581835	0.123996	0.620490	0.839932	-4.477197	6.760478	20.264456	0.543694	0.009489	21.665504	-15.920016	0.000000	-0.283990	-10.415195	-14.720540	10.030551	0.175066	37.090694	13.177438	0.000000	-0.032534	0.706040	-0.616840	-0.060419	0.939033	-0.655392	-0.053450	1.716664	-0.655392	-0.037183	1.716664	-0.539735	-0.030211	1.439756	-0.501182	-0.018590	1.093655	-0.462630	-0.232386	7.986860	-3.430678	0.000000	0.000000	19.645901	-4.372703	0.661961	15.213304	-5.779661	57.962113	42.185901	84.792017	1.837894	6.727246	8.240632	-1.359581	36.488685	47.825038	79.906035	-5.566669	5.319243
0.183333	8.374046	-5.587004	99.513954	0.123811	0.620543	0.838838	-4.703983	6.819095	20.548118	0.512181	0.008939	21.693874	-16.032869	0.000000	-0.647305	-10.450748	-14.895780	9.767210	0.170470	37.043425	13.333657	0.000000	-0.036661	0.715779	-0.611420	-0.068084	0.951986	-0.649634	-0.060231	1.740346	-0.649634	-0.041900	1.740346	-0.534992	-0.034044	1.459617	-0.496779	-0.020948	1.108742	-0.458565	-0.261868	8.097039	-3.400533	0.000000	0.000000	19.756784	-4.538393	0.781212	14.795147	-5.827921	57.277310	42.500882	84.726282	1.808266	6.529571	8.180529	-1.453660	36.698187	47.916493	80.277954	-5.639492	5.452858
0.200000	8.416949	-5.443502	99.475044	0.123610	0.620601	0.837809	-4.914784	6.879701	20.686363	0.497045	0.008675	21.750357	-16.025687	0.000000	-0.986585	-10.486919	-15.015689	9.530786	0.166344	36.963305	13.399880	0.000000	-0.041575	0.724839	-0.600027	-0.077209	0.964036	-0.637528	-0.068304	1.762373	-0.637528	-0.047516	1.762373	-0.525023	-0.038607	1.478091	-0.487522	-0.023756	1.122775	-0.450020	-0.296967	8.199523	-3.337169	0.000000	0.000000	19.905789	-4.702215	0.856996	14.394967	-5.892200	56.584307	42.802586	84.590292	1.745090	6.183551	8.189492	-1.558208	37.050606	47.990054	80.513095	-5.768655	5.544237
0.216667	8.455182	-5.327438	99.465045	0.123408	0.620605	0.836833	-5.096234	6.934490	20.770159	0.483026	0.008430	21.802255	-16.016505	0.000000	-1.273378	-10.523545	-15.113405	9.339098	0.162998	36.874116	13.434235	0.000000	-0.043387	0.731703	-0.589201	-0.080574	0.973165	-0.626026	-0.071281	1.779064	-0.626026	-0.049587	1.779064	-0.515551	-0.040289	1.492089	-0.478726	-0.024791	1.133409	-0.441901	-0.309911	8.277175	-3.276958	0.000000	0.000000	20.073998	-4.893999	0.803160	14.087052	-5.979422	56.105932	43.075833	84.467496	1.659238	5.691765	8.205767	-1.675873	37.420926	48.093220	80.625779	-5.889930	5.624202
0.233333	8.492876	-5.223598	99.508388	0.123222	0.620582	0.836014	-5.255412	6.995372	20.785604	0.471387	0.008227	21.843980	-16.015903	0.000000	-1.503856	-10.570167	-15.157923	9.199559	0.160563	36.786373	13.433963	0.000000	-0.045757	0.737067	-0.582043	-0.084976	0.980300	-0.618421	-0.075175	1.792106	-0.618421	-0.052296	1.792106	-0.509288	-0.042490	1.503028	-0.472910	-0.026146	1.141717	-0.436533	-0.326840	8.337853	-3.237151	0.000000	0.000000	20.304539	-5.083135	0.700905	13.889452	-6.060637	55.840939	43.270762	84.421316	1.492042	5.113434	8.274436	-1.779289	37.838979	48.154649	80.685897	-6.084991	5.620708
0.250000	8.527310	-5.139318	99.614972	0.123018	0.620520	0.835367	-5.383554	7.056387	20.696738	0.462713	0.008076	21.868214	-15.996500	0.000000	-1.659365	-10.618262	-15.100119	9.125706	0.159274	36.706882	13.364066	0.000000	-0.046400	0.740013	-0.583165	-0.086169	0.984217	-0.619613	-0.076230	1.799267	-0.619613	-0.053030	1.799267	-0.510269	-0.043087	1.509034	-0.473821	-0.026513	1.146279	-0.437374	-0.331429	8.371170	-3.243387	0.000000	0.000000	20.527487	-5.283371	0.482532	13.819675	-6.144481	55.854078	43.395084	84.477854	1.259752	4.474293	8.388467	-1.868163	38.261973	48.171162	80.597649	-6.211945	5.607645
0.266667	8.555586	-5.071429	99.765188	0.122793	0.620446	0.834915	-5.484400	7.111059	20.542602	0.455716	0.007954	21.875244	-15.966880	0.000000	-1.746344	-10.663122	-14.969946	9.114917	0.159085	36.643385	13.253699	0.000000	-0.046162	0.740253	-0.590959	-0.085728	0.984536	-0.627894	-0.075840	1.799851	-0.627894	-0.052759	1.799851	-0.517089	-0.042866	1.509523	-0.480154	-0.026377	1.146652	-0.443219	-0.329734	8.373887	-3.286736	0.000000	0.000000	20.715177	-5.487039	0.140026	13.855791	-6.228172	56.085305	43.458516	84.551233	1.019836	3.825809	8.548149	-1.938328	38.682336	48.119922	80.358975	-6.242023	5.560180
0.283333	8.575331	-5.032196	99.931241	0.122568	0.620385	0.834672	-5.542225	7.152538	20.358553	0.452243	0.007893	21.855767	-15.946755	0.000000	-1.762449	-10.694504	-14.776539	9.148715	0.159675	36.590411	13.080899	0.000000	-0.044196	0.737720	-0.598401	-0.082077	0.981168	-0.635801	-0.072610	1.793693	-0.635801	-0.050512	1.793693	-0.523600	-0.041041	1.504359	-0.486200	-0.025254	1.142728	-0.448800	-0.315689	8.345238	-3.328124	0.000000	0.000000	20.863610	-5.697940	-0.286407	13.959056	-6.321461	56.446021	43.490286	84.707859	0.777592	3.152693	8.762968	-2.005553	39.157814	47.996224	79.936211	-6.149310	5.445152
0.300000	8.574320	-5.019904	100.069812	0.122382	0.620376	0.834615	-5.562129	7.163735	20.194770	0.451093	0.007873	21.828123	-15.923821	0.000000	-1.729738	-10.696690	-14.580097	9.205023	0.160658	36.543623	12.881101	0.000000	-0.041504	0.731180	-0.594043	-0.077077	0.972469	-0.631171	-0.068187	1.777791	-0.631171	-0.047435	1.777791	-0.519788	-0.038541	1.491022	-0.482660	-0.023715	1.132598	-0.445533	-0.296460	8.271252	-3.303891	0.000000	0.000000	20.940653	-5.888766	-0.785639	14.060679	-6.423752	56.758280	43.530793	85.096618	0.669590	2.486638	9.035103	-2.093932	39.731940	47.832449	79.362803	-5.924259	5.343464
